<?xml version="1.0" encoding="utf-8"?>
<svg xmlns="http://www.w3.org/2000/svg" xmlns:svg="http://www.w3.org/2000/svg" version="1.1" viewBox="0 0 1400 440">
	<title>The titlepage for the Standard Ebooks edition of Japanese Fairy Tales, by Yei Theodora Ozaki</title>
	<g aria-label="JAPANESE">
		<path d="M 473.98903,52.807016 H 456.39839 V 103.7076 c 0,7.76608 -3.83626,10.8538 -8.88889,10.8538 -4.49123,0 -10.0117,-5.23976 -10.0117,-5.23976 l -5.61403,14.69006 c 0,0 7.01754,7.39181 18.05848,7.39181 15.43859,0 24.04678,-8.04678 24.04678,-23.20468 z"/>
		<path d="M 528.46272,52.807016 H 512.18201 L 481.02412,130 h 18.90058 l 5.70761,-15.4386 h 29.38011 L 540.72003,130 h 18.90058 z m 0.5614,46.31579 h -17.40351 l 8.60819,-22.45614 h 0.18713 z"/>
		<path d="M 567.5402,52.807016 V 130 h 17.59065 v -28.63158 h 10.5731 c 15.06432,0 26.38596,-8.888888 26.38596,-24.795322 0,-16 -11.32164,-23.766082 -26.38596,-23.766082 z m 17.59065,34.526317 V 66.842104 h 4.95906 c 6.92398,0 13.47369,2.339181 13.47369,10.292398 0,7.859649 -6.54971,10.198831 -13.47369,10.198831 z"/>
		<path d="m 668.03144,52.807016 h -16.2807 L 620.59284,130 h 18.90059 l 5.7076,-15.4386 h 29.38012 L 680.28875,130 h 18.90059 z m 0.56141,46.31579 h -17.40351 l 8.60818,-22.45614 h 0.18714 z"/>
		<path d="m 724.69957,82.093566 h 0.18714 L 755.57677,130 h 17.59064 V 52.807016 h -17.59064 v 47.906434 h -0.18714 L 724.69957,52.807016 H 707.10893 V 130 h 17.59064 z"/>
		<path d="M 833.57531,52.807016 H 789.41157 V 130 h 44.16374 v -15.4386 h -26.5731 V 99.029239 h 25.4503 V 83.590642 h -25.4503 V 68.245613 h 26.5731 z"/>
		<path d="m 877.13232,51.403507 c -12.44444,0 -25.16959,9.169591 -25.16959,23.578948 0,8.046784 5.4269,15.251462 14.69006,19.836258 9.16959,4.584795 17.40351,7.111107 17.40351,12.725147 0,7.20468 -7.29825,7.57895 -11.1345,7.57895 -8.60819,0 -18.90059,-8.70176 -18.90059,-8.70176 l -8.79532,14.78363 c 0,0 10.94737,10.19883 29.00585,10.19883 15.06433,0 29.09941,-6.45614 29.09941,-24.88889 0,-10.105264 -9.45029,-17.40351 -18.05848,-21.052632 -8.79532,-3.742691 -16.09356,-6.83041 -16.09356,-11.134504 0,-4.210526 3.18128,-6.923976 9.16959,-6.923976 7.95321,0 15.62573,5.333333 15.62573,5.333333 l 7.11111,-14.035088 c 0,0 -9.91813,-7.298246 -23.95322,-7.298246 z"/>
		<path d="M 960.7171,52.807016 H 916.55336 V 130 H 960.7171 V 114.5614 H 934.144 V 99.029239 h 25.45029 V 83.590642 H 934.144 V 68.245613 h 26.5731 z"/>
	</g>
	<g aria-label="FAIRY TALES">
		<path d="M 427.82236,152.80702 H 383.19078 V 230 h 17.59065 v -30.97076 h 24.98245 v -15.4386 h -24.98245 v -15.34503 h 27.04093 z"/>
		<path d="M 477.10307,152.80702 H 460.82236 L 429.66447,230 h 18.90058 l 5.70761,-15.4386 h 29.38011 L 489.36038,230 h 18.90058 z m 0.5614,46.31579 h -17.40351 l 8.60819,-22.45614 h 0.18713 z"/>
		<path d="M 533.7712,152.80702 H 516.18056 V 230 h 17.59064 z"/>
		<path d="M 550.05483,152.80702 V 230 h 17.59064 V 199.49708 L 591.22442,230 h 22.36257 l -26.5731,-31.90643 c 9.4503,-2.99416 15.81287,-10.76024 15.81287,-22.36258 0,-15.15789 -10.8538,-22.92397 -25.16959,-22.92397 z m 17.59064,34.24561 V 166.8421 h 2.05848 c 6.64328,0 14.59649,0.46784 14.59649,10.10527 0,9.63742 -7.95321,10.10526 -14.59649,10.10526 z"/>
		<path d="m 605.29605,152.80702 28.44445,42.5731 V 230 h 17.59064 v -34.61988 l 28.44445,-42.5731 h -21.1462 l -16.09357,24.70175 -16.09357,-24.70175 z"/>
		<path d="m 708.76389,168.24561 h 18.33918 V 230 h 17.59064 v -61.75439 h 18.33918 v -15.43859 h -54.269 z"/>
		<path d="m 809.00365,152.80702 h -16.2807 L 761.56505,230 h 18.90059 l 5.7076,-15.4386 h 29.38012 L 821.26096,230 h 18.90058 z m 0.5614,46.31579 h -17.40351 l 8.60819,-22.45614 h 0.18713 z"/>
		<path d="M 865.67178,152.80702 H 848.08113 V 230 h 44.16375 v -15.4386 h -26.5731 z"/>
		<path d="M 950.05924,152.80702 H 905.8955 V 230 h 44.16374 v -15.4386 h -26.5731 v -15.53216 h 25.45029 v -15.4386 h -25.45029 v -15.34503 h 26.5731 z"/>
		<path d="m 993.61625,151.40351 c -12.44445,0 -25.16959,9.16959 -25.16959,23.57895 0,8.04678 5.4269,15.25146 14.69005,19.83625 9.1696,4.5848 17.40349,7.11111 17.40349,12.72515 0,7.20468 -7.29822,7.57895 -11.13448,7.57895 -8.60819,0 -18.90058,-8.70176 -18.90058,-8.70176 l -8.79533,14.78363 c 0,0 10.94737,10.19883 29.00585,10.19883 15.06434,0 29.09944,-6.45614 29.09944,-24.88889 0,-10.10526 -9.4503,-17.40351 -18.0585,-21.05263 -8.79532,-3.74269 -16.09357,-6.83041 -16.09357,-11.13451 0,-4.21052 3.18129,-6.92397 9.16959,-6.92397 7.95318,0 15.62578,5.33333 15.62578,5.33333 l 7.1111,-14.03509 c 0,0 -9.9182,-7.29824 -23.95325,-7.29824 z"/>
	</g>
	<g aria-label="YEI THEODORA OZAKI">
		<path d="m 249.14474,332.10526 21.33333,31.92983 V 390 h 13.19299 v -25.96491 l 21.33333,-31.92983 h -15.85965 l -12.07017,18.52632 -12.07018,-18.52632 z"/>
		<path d="M 345.25549,332.10526 H 312.13268 V 390 h 33.12281 v -11.57895 h -19.92983 v -11.64912 h 19.08772 v -11.57895 h -19.08772 v -11.50877 h 19.92983 z"/>
		<path d="M 371.0329,332.10526 H 357.83992 V 390 h 13.19298 z"/>
		<path d="m 401.60856,343.68421 h 13.75438 V 390 h 13.19299 v -46.31579 h 13.75438 v -11.57895 h -40.70175 z"/>
		<path d="m 465.25439,366.77193 h 18.66666 V 390 h 13.19299 v -57.89474 h -13.19299 v 23.08772 H 465.25439 V 332.10526 H 452.06141 V 390 h 13.19298 z"/>
		<path d="M 543.63816,332.10526 H 510.51535 V 390 h 33.12281 v -11.57895 h -19.92982 v -11.64912 h 19.08772 v -11.57895 h -19.08772 v -11.50877 h 19.92982 z"/>
		<path d="m 553.62609,361.01754 c 0,16.91228 12.07018,30.03509 29.19299,30.03509 16.63157,0 29.1228,-13.12281 29.1228,-30.03509 0,-16.91228 -13.05263,-29.96491 -29.1228,-29.96491 -15.92983,0 -29.19299,13.05263 -29.19299,29.96491 z m 14.24562,0 c 0,-8.63157 4.77193,-17.26315 14.94737,-17.26315 10.24561,0 14.87719,8.63158 14.87719,17.26315 0,8.63158 -4.35088,17.26316 -14.87719,17.26316 -10.80702,0 -14.94737,-8.63158 -14.94737,-17.26316 z"/>
		<path d="M 622.76314,332.10526 V 390 h 16.77193 c 15.92983,0 29.19298,-12.07018 29.19298,-28.98246 0,-16.8421 -13.33333,-28.91228 -29.19298,-28.91228 z m 13.19298,46.10527 v -34.31579 h 2.03509 c 9.82456,0 16.49123,7.50877 16.49123,17.19298 -0.0702,9.68421 -6.73684,17.12281 -16.49123,17.12281 z"/>
		<path d="m 676.97589,361.01754 c 0,16.91228 12.07017,30.03509 29.19298,30.03509 16.63158,0 29.1228,-13.12281 29.1228,-30.03509 0,-16.91228 -13.05263,-29.96491 -29.1228,-29.96491 -15.92983,0 -29.19298,13.05263 -29.19298,29.96491 z m 14.24561,0 c 0,-8.63157 4.77193,-17.26315 14.94737,-17.26315 10.24561,0 14.87719,8.63158 14.87719,17.26315 0,8.63158 -4.35088,17.26316 -14.87719,17.26316 -10.80702,0 -14.94737,-8.63158 -14.94737,-17.26316 z"/>
		<path d="M 746.11293,332.10526 V 390 h 13.19299 V 367.12281 L 776.99013,390 h 16.77193 l -19.92983,-23.92982 c 7.08772,-2.24562 11.85965,-8.07018 11.85965,-16.77193 0,-11.36842 -8.14035,-17.19299 -18.87719,-17.19299 z m 13.19299,25.68421 v -15.15789 h 1.54386 c 4.98245,0 10.94737,0.35088 10.94737,7.57895 0,7.22807 -5.96492,7.57894 -10.94737,7.57894 z"/>
		<path d="M 830.81796,332.10526 H 818.60743 L 795.23901,390 h 14.17544 l 4.2807,-11.57895 h 22.03509 L 840.01094,390 h 14.17544 z m 0.42105,34.73685 H 818.18638 L 824.64252,350 h 0.14035 z"/>
		<path d="m 882.96823,361.01754 c 0,16.91228 12.07017,30.03509 29.19298,30.03509 16.63158,0 29.1228,-13.12281 29.1228,-30.03509 0,-16.91228 -13.05263,-29.96491 -29.1228,-29.96491 -15.92983,0 -29.19298,13.05263 -29.19298,29.96491 z m 14.24561,0 c 0,-8.63157 4.77193,-17.26315 14.94737,-17.26315 10.24561,0 14.87719,8.63158 14.87719,17.26315 0,8.63158 -4.35088,17.26316 -14.87719,17.26316 -10.80702,0 -14.94737,-8.63158 -14.94737,-17.26316 z"/>
		<path d="m 1000.7368,332.10526 h -47.6491 v 11.57895 h 24.5614 L 949.01753,390 h 49.82456 v -11.57895 h -26.80702 z"/>
		<path d="m 1040.511,332.10526 h -12.2106 L 1004.932,390 h 14.1754 l 4.2807,-11.57895 h 22.0351 L 1049.7039,390 h 14.1755 z m 0.421,34.73685 h -13.0526 L 1034.3355,350 h 0.1404 z"/>
		<path d="m 1123.7708,390 -26.9474,-30.45614 23.2983,-27.4386 h -16 l -19.8597,23.64913 v -23.64913 h -13.1929 V 390 h 13.1929 V 365.4386 L 1105.5954,390 Z"/>
		<path d="m 1144.4978,332.10526 h -13.193 V 390 h 13.193 z"/>
	</g>
</svg>
